<svg id="Warstwa_2" data-name="Warstwa 2" xmlns="http://www.w3.org/2000/svg" viewBox="0 0 289.22 103.41"><defs><style>.cls-1{fill:none;stroke:#000;stroke-miterlimit:10;stroke-width:14px;}</style></defs><path d="M134.46,546.72c-21,0-38.05-16.63-38.05-37.06s17.07-37.07,38.05-37.07,38,16.63,38,37.07S155.44,546.72,134.46,546.72Zm0-57.13c-11.6,0-21.05,9-21.05,20.07s9.45,20.06,21.05,20.06,21-9,21-20.06S146.07,489.59,134.46,489.59Z" transform="translate(-96.41 -443.31)"/><path class="cls-1" d="M160.64,474.42" transform="translate(-96.41 -443.31)"/><rect x="59.73" y="31.11" width="17" height="70.88"/><rect x="90.6" y="3.54" width="17" height="99.56"/><rect x="123.47" y="30.82" width="17" height="72"/><rect x="182.57" y="65.34" width="17" height="37.26"/><path d="M296,509.66H279c0-11.63-8-20.07-19.05-20.07-12.06,0-23.05,9.57-23.05,20.07h-17c0-20.09,18.34-37.07,40.05-37.07C280.48,472.59,296,488.53,296,509.66Z" transform="translate(-96.41 -443.31)"/><path d="M279,509.76a35.52,35.52,0,0,1,10.89-25.87,40.42,40.42,0,0,1,29.41-11.29c20.74.61,35.8,16.19,35.8,37.06h-17c0-11.48-7.93-19.73-19.29-20.06a23.25,23.25,0,0,0-17,6.42,18.65,18.65,0,0,0-5.8,13.55Z" transform="translate(-96.41 -443.31)"/><rect x="241.67" y="65.34" width="17" height="37.26"/><rect x="268.58" y="31.67" width="17" height="70.87"/><circle cx="277.08" cy="12.14" r="4.88"/><path d="M373.49,467.59a12.14,12.14,0,1,1,12.14-12.14A12.15,12.15,0,0,1,373.49,467.59Zm0-14.51a2.38,2.38,0,1,0,2.38,2.37A2.37,2.37,0,0,0,373.49,453.08Z" transform="translate(-96.41 -443.31)"/></svg>