<?xml version="1.0" encoding="utf-8"?>
<!-- Generator: Adobe Illustrator 26.0.1, SVG Export Plug-In . SVG Version: 6.00 Build 0)  -->
<svg version="1.1" id="Warstwa_1" xmlns="http://www.w3.org/2000/svg" xmlns:xlink="http://www.w3.org/1999/xlink" x="0px" y="0px"
	 viewBox="0 0 236 236" style="enable-background:new 0 0 236 236;" xml:space="preserve">
<style type="text/css">
	.st0{fill:none;}
	.st1{fill:#A5FAE6;}
	.st2{fill:#00F0AF;}
	.st3{fill:#870AA0;}
</style>
<g id="Warstwa_4">
	<path class="st0" d="M119,117.5h63c-0.1-16.7-6.8-32.7-18.5-44.5L119,117.5z"/>
	<path class="st0" d="M116.5,117.5H54c-0.2,17.3,6.7,33.9,19,46l45.1-45.1l-0.3-0.3C117.5,117.7,117,117.5,116.5,117.5z"/>
	<path class="st0" d="M118.5,118v0.7l44.6,44.6c12.2-12.1,19-28.6,18.9-45.8h-63L118.5,118z"/>
	<path class="st0" d="M118.5,182c16.8-0.1,32.8-6.8,44.6-18.7l-44.6-44.7V182z"/>
	<path class="st0" d="M72.7,72.9C60.8,84.7,54.1,100.7,54,117.5h63.3L72.7,72.9z"/>
	<polygon class="st0" points="117.3,117.5 118.2,118.3 118.5,118 118.5,117.5 	"/>
	<polygon class="st0" points="118.5,118.7 118.5,118 118.2,118.3 	"/>
	<path class="st0" d="M118.2,118.3L73,163.5c12.1,12,28.5,18.7,45.5,18.5l0,0v-63.3L118.2,118.3z"/>
	<polygon class="st0" points="118.5,118 119,117.5 118.5,117.5 	"/>
	<path class="st0" d="M118.5,117.5V54l0,0c-17.2-0.1-33.7,6.7-45.8,18.9l44.6,44.6H118.5z"/>
	<path class="st1" d="M236,117.5h-54v0.5c0,17-6.8,33.3-18.9,45.3l38.2,38.2C223.7,179.3,236.2,149,236,117.5L236,117.5z"/>
	<path class="st2" d="M236,117.4c-0.1-31-12.4-60.7-34.3-82.7l0,0c-22-22.2-51.9-34.7-83.2-34.8v54c16.9,0.1,33.1,7,45,19l0,0
		c11.7,11.8,18.4,27.8,18.5,44.4H236z"/>
	<path class="st3" d="M201.4,201.5l-38.2-38.2c-11.9,11.8-27.9,18.5-44.6,18.7v-0.1H118c-16.9,0-33-6.7-45-18.6l-0.1,0.1
		C60.8,151.4,54,135,54,118v-0.5c0.1-16.8,6.8-32.8,18.7-44.6l0,0c12-12,28.3-18.8,45.3-18.8h0.5v-54C86.9-0.1,56.6,12.4,34.3,34.7
		l0,0C12.4,56.7,0.1,86.5,0,117.5c-0.2,31.6,12.4,61.9,34.8,84.2l0,0c22.2,22.2,52.3,34.5,83.6,34.4
		C149.6,235.9,179.4,223.5,201.4,201.5z"/>
</g>
</svg>
